<?xml version="1.0" encoding="utf-8"?>
<!-- Generator: Adobe Illustrator 24.1.2, SVG Export Plug-In . SVG Version: 6.00 Build 0)  -->
<svg version="1.1" id="Layer_1" xmlns="http://www.w3.org/2000/svg" xmlns:xlink="http://www.w3.org/1999/xlink" x="0px" y="0px"
	 width="661.6px" height="165.1px" viewBox="0 0 661.6 165.1" style="enable-background:new 0 0 661.6 165.1;" xml:space="preserve"
	>
<style type="text/css">
	.st0{fill:#97E8BD;}
	.st1{fill:#FFFFFF;}
	.st2{fill:#004841;}
</style>
<g>
	<path class="st0" d="M124.5,42.2l-20.8,0l0,0H75.6l0,0l-32.8,0v37.1c0,0.1,0,0.3,0,0.4v4.9l0,0v35.5c0,2.6,3.1,3.9,5,2.1L82,89.4
		c1.8-1.8,0.5-5-2-5l-27.3,0.1l0-2.6c0,0-0.1-1.4,0.5-3.2c0.4-1.3,1.2-2.7,2.6-4.1l0,0l20.3-20.8c0.6-0.5,1.2-0.9,1.8-1.2
		c1.6-0.9,4.2-0.9,4.2-0.9h5.2v29.1c0,0.1,0,0.3,0,0.4v3.2h0v35.6c0,2.6,3.1,3.9,5,2.1l34.2-32.7c1.8-1.8,0.5-5-2.1-5H97.2l0-2.3
		c0,0-0.1-1.6,0.5-3.4c0.4-1.3,1.5-3.2,2.9-4.6l0,0l25.9-27C128.4,45.3,127.1,42.2,124.5,42.2z"/>
	<path class="st1" d="M220.1,69.7c0-8.1-2.5-14.9-7.3-19.8c-4.9-4.9-12.1-7.6-20.6-7.6h-30.7c-0.7,0-1.3,0.6-1.3,1.3v77.6
		c0,0.7,0.6,1.3,1.3,1.3h10.7c0.7,0,1.3-0.6,1.3-1.3V96.9h10v0H200c2.8,0.1,3.9,1.4,4.5,2.1c1.1,1.2,1.2,3,1.2,4.6l0,17.7
		c0,0.6,0.5,1.1,1.1,1.1h10.8c0.6,0,1.1-0.5,1.1-1.1v-17.1c0-0.1,0-0.1,0-0.2c0.2-4.7-1.2-9.6-4.5-13.1c-1.4-1.4-3.1-2.5-4.9-3.3
		C214.8,84.1,220,78.9,220.1,69.7z M173.4,54h17.4c4.5,0,8.6,1.9,11.7,5.3c2.8,3.1,4.4,7.3,4.4,11.3c0,8.8-6.6,15.5-16.1,15.5h-17.4
		V54z"/>
	<path class="st1" d="M259.4,61.8c-7.7,0-15,2.9-20.5,8.3c-5.8,5.6-9,13.6-9,22.4c0,9.3,3.1,17.3,8.9,23.1
		c5.5,5.4,13.1,8.4,21.3,8.4c12.4,0,23.4-7.4,27.3-18.5c0.2-0.4,0.1-0.9-0.2-1.2c-0.3-0.4-0.7-0.6-1.1-0.6h-10
		c-0.5,0-0.9,0.3-1.2,0.7c-3.4,5.7-8.5,8.9-14.6,8.9c-4.4,0-8.6-1.6-11.8-4.4c-3.3-2.9-5.3-7.6-5.9-12.4h44.2c0.7,0,1.3-0.6,1.3-1.3
		v-1.6c0-10-3-17.7-8.7-23.4C274.5,64.6,267.3,61.8,259.4,61.8z M242.8,86.1c1-8.5,7.6-13.7,16.4-13.7c8.9,0,15.3,5.2,16.1,13.7
		H242.8z"/>
	<path class="st1" d="M383.4,61.8c-7.7,0-15,2.9-20.5,8.3c-5.8,5.6-9,13.6-9,22.4c0,9.3,3.1,17.3,8.9,23.1
		c5.5,5.4,13.1,8.4,21.3,8.4c12.4,0,23.4-7.4,27.3-18.5c0.1-0.4,0.1-0.9-0.2-1.2c-0.3-0.4-0.7-0.6-1.1-0.6h-10
		c-0.5,0-0.9,0.3-1.2,0.7c-3.4,5.7-8.5,8.9-14.6,8.9c-4.4,0-8.6-1.6-11.8-4.4c-3.3-2.9-5.3-7.8-5.9-12.7h44.2c0.7,0,1.3-0.6,1.3-1.3
		V93c0-10-3-17.5-8.7-23.2C398.5,64.6,391.3,61.8,383.4,61.8z M366.8,85.9c1-8.5,7.6-13.5,16.4-13.5c8.9,0,15.3,4.9,16.1,13.5H366.8
		z"/>
	<path class="st1" d="M349.2,63.2h-10.8c-0.4,0-0.7,0.2-0.8,0.6l-15.8,46.7L306,63.7c-0.1-0.3-0.4-0.6-0.8-0.6h-11.5
		c-0.3,0-0.5,0.1-0.7,0.4c-0.2,0.2-0.2,0.5-0.1,0.8l21,56.4c0.4,1.1,1.5,1.9,2.7,1.9h9.7c1.2,0,2.3-0.8,2.7-1.9l21-56.4
		c0.1-0.3,0.1-0.6-0.1-0.8C349.8,63.3,349.5,63.2,349.2,63.2z"/>
	<path class="st1" d="M479.7,63.2h-9.5c-0.9,0-1.6,0.7-1.6,1.6V121c0,0.9,0.7,1.6,1.6,1.6h9.5c0.9,0,1.6-0.7,1.6-1.6V64.7
		C481.2,63.9,480.5,63.2,479.7,63.2z"/>
	<path class="st1" d="M523.1,61.8c-8.3,0-15.9,3-21.5,8.4c-5.7,5.6-8.9,13.5-8.9,22.2c0,9.3,3.1,17.2,8.9,23
		c5.5,5.4,13.1,8.4,21.5,8.4c17.6,0,30.4-13.2,30.4-31.4c0-9-3-16.7-8.8-22.3C539.2,64.8,531.6,61.8,523.1,61.8z M535.7,107.1
		c-3.2,3.7-7.5,5.6-12.6,5.6c-10.3,0-17.4-8.3-17.4-20.3c0-11.5,7.2-19.5,17.4-19.5c10.3,0,17.4,8,17.4,19.5
		C540.6,98.3,538.9,103.4,535.7,107.1z"/>
	<path class="st1" d="M612.6,68c-3.9-3.9-9.5-6.2-16.2-6.6c-7.3-0.4-15,3.2-18.9,8.7v-5.8c0-0.7-0.5-1.2-1.2-1.2h-10.1
		c-0.7,0-1.2,0.5-1.2,1.2v57c0,0.7,0.5,1.2,1.2,1.2h10.2c0.7,0,1.2-0.5,1.2-1.2V89.9c0-11.3,7.6-17.2,15.1-17.2
		c8.2,0,13.6,5.8,13.6,14.4v34.3c0,0.7,0.5,1.2,1.2,1.2h10.2c0.7,0,1.2-0.5,1.2-1.2V85.6C618.9,78.1,616.8,72.2,612.6,68z"/>
	<path class="st1" d="M474.8,42.4c-4.1,0-7.5,3.4-7.5,7.5s3.4,7.5,7.5,7.5s7.5-3.4,7.5-7.5S478.9,42.4,474.8,42.4z"/>
	<path class="st1" d="M457.9,63h-17c-9.6,0-17.4,7.8-17.4,17.4v41.3c0,0.7,0.6,1.3,1.3,1.3h10.4c0.7,0,1.3-0.6,1.3-1.3V76.3
		c0-1.3,1-2.3,2.3-2.3h19c0.7,0,1.3-0.6,1.3-1.3v-8.4C459.2,63.6,458.6,63,457.9,63z"/>
</g>
</svg>
